<svg width="32" height="32" viewBox="0 0 32 32" fill="none" xmlns="http://www.w3.org/2000/svg">
    <path d="M21 2.5C21.5523 2.5 22 2.05228 22 1.5C22 0.947715 21.5523 0.5 21 0.5V2.5ZM21 0.5L9.53674e-07 0.5V2.5L21 2.5V0.5Z" fill="green"/>
    <line x1="31.5" y1="31" y2="31" stroke="green" stroke-width="2"/>
    <path d="M31.5 11C31.5 10.4477 31.0523 10 30.5 10C29.9477 10 29.5 10.4477 29.5 11H31.5ZM31.5 31V11H29.5V31H31.5Z" fill="green"/>
    <line x1="1" y1="31" x2="1" y2="1" stroke="green" stroke-width="2"/>
    <path d="M26.5 2V9" stroke="green" stroke-width="2" stroke-linecap="round"/>
    <path d="M23 5.5H30" stroke="green" stroke-width="2" stroke-linecap="round"/>
    <line x1="1.66301" y1="30.6728" x2="16.8658" y2="15.47" stroke="green" stroke-width="2"/>
    <line x1="15.7071" y1="15.2929" x2="30.7404" y2="30.3262" stroke="green" stroke-width="2"/>
    <circle cx="8.5" cy="10.5" r="2.5" stroke="green" stroke-width="2"/>
</svg>